<?xml version="1.0" encoding="UTF-8" standalone="no"?>
<!-- Created with Inkscape (http://www.inkscape.org/) -->

<svg
   width="412.80927"
   height="61.26857"
   viewBox="0 0 412.80929 61.268572"
   version="1.1"
   id="svg1"
   xml:space="preserve"
   sodipodi:docname="campuwise-logo-transparent2.svg"
   inkscape:version="1.4.2 (ebf0e940, 2025-05-08)"
   xmlns:inkscape="http://www.inkscape.org/namespaces/inkscape"
   xmlns:sodipodi="http://sodipodi.sourceforge.net/DTD/sodipodi-0.dtd"
   xmlns:xlink="http://www.w3.org/1999/xlink"
   xmlns="http://www.w3.org/2000/svg"
   xmlns:svg="http://www.w3.org/2000/svg"><sodipodi:namedview
     id="namedview1"
     pagecolor="#ffffff"
     bordercolor="#000000"
     borderopacity="0.25"
     inkscape:showpageshadow="2"
     inkscape:pageopacity="0.0"
     inkscape:pagecheckerboard="0"
     inkscape:deskcolor="#d1d1d1"
     inkscape:zoom="1.7635263"
     inkscape:cx="205.27054"
     inkscape:cy="10.773868"
     inkscape:window-width="1920"
     inkscape:window-height="957"
     inkscape:window-x="0"
     inkscape:window-y="25"
     inkscape:window-maximized="1"
     inkscape:current-layer="layer1" /><defs
     id="defs1"><linearGradient
       id="linearGradient18"
       inkscape:collect="always"><stop
         style="stop-color:#103783;stop-opacity:1;"
         offset="0"
         id="stop18" /><stop
         style="stop-color:#4e72ae;stop-opacity:1;"
         offset="1"
         id="stop19" /></linearGradient><linearGradient
       inkscape:collect="always"
       xlink:href="#linearGradient18"
       id="linearGradient19"
       x1="43.595372"
       y1="250.00001"
       x2="456.4046"
       y2="250.00001"
       gradientUnits="userSpaceOnUse" /></defs><g
     id="layer1"
     transform="translate(-43.595375,-219.36572)"
     style="fill:url(#linearGradient19)"
     inkscape:highlight-color="#ffffff"><g
       style="opacity:1;fill:url(#linearGradient19);fill-opacity:1"
       id="g17"
       transform="matrix(3.2825084,0,0,3.4038098,40.312866,209.15429)"><g
         id="SVGRepo_bgCarrier"
         stroke-width="0"
         style="fill:url(#linearGradient19);fill-opacity:1" /><g
         id="SVGRepo_tracerCarrier"
         stroke-linecap="round"
         stroke-linejoin="round"
         style="fill:url(#linearGradient19);fill-opacity:1" /><g
         id="SVGRepo_iconCarrier"
         style="fill:url(#linearGradient19);fill-opacity:1"><path
           d="m 14.217,3.49965 c -1.421,-0.6662 -3.0135,-0.6662 -4.43448,0 L 5.48919,5.51246 C 6.27114,5.59683 6.98602,6.0894 7.31789,6.86377 7.80739,8.00594 7.2783,9.32867 6.13613,9.81817 L 5.06046,10.2792 c -0.53452,0.229 -0.83785,0.3614 -1.04264,0.4664 -0.00112,0.0163 -0.00218,0.0332 -0.00317,0.0506 l 5.76796,2.7041 c 1.42099,0.6662 3.01349,0.6662 4.43449,0 l 6.6911,-3.1369 c 1.4555,-0.68235 1.4555,-3.04441 0,-3.72676 z"
           fill="#f2f4f6"
           id="path1"
           style="fill:url(#linearGradient19);fill-opacity:1" /><path
           d="m 4.9998,12.9147 v 3.7107 c 0,1.008 0.50351,1.9518 1.38534,2.4402 C 7.85351,19.8787 10.2038,21 11.9998,21 c 1.796,0 4.1463,-1.1213 5.6147,-1.9344 0.8818,-0.4884 1.3853,-1.4322 1.3853,-2.4402 v -3.7106 l -4.146,1.9437 c -1.8244,0.8553 -3.8835,0.8553 -5.70792,0 z"
           fill="#f2f4f6"
           id="path2"
           style="fill:url(#linearGradient19);fill-opacity:1" /><path
           d="M 5.54544,8.43955 C 5.92616,8.27638 6.10253,7.83547 5.93936,7.45475 5.7762,7.07403 5.33529,6.89767 4.95456,7.06083 L 3.84318,7.53714 C 3.28571,7.77603 2.81328,7.97849 2.44254,8.18705 2.04805,8.40898 1.70851,8.66944 1.45419,9.05513 1.19986,9.44083 1.09421,9.85551 1.04563,10.3055 0.999964,10.7284 0.999981,11.2424 1,11.8489 v 2.9013 c 0,0.4142 0.33579,0.75 0.75,0.75 0.41422,0 0.75,-0.3358 0.75,-0.75 V 11.8878 C 2.5,11.232 2.50101,10.7995 2.53696,10.4665 2.57095,10.1517 2.63046,9.99612 2.70645,9.88087 2.78244,9.76562 2.90202,9.64964 3.178,9.49438 3.46985,9.33019 3.867,9.15889 4.46976,8.90056 Z"
           fill="#f2f4f6"
           id="path3"
           style="fill:url(#linearGradient19);fill-opacity:1" /></g></g><path
       d="m 124.36459,243.95988 q 0,-3.86806 1.33024,-7.5576 1.38808,-3.74905 3.99074,-6.78399 2.60265,-3.09445 6.36202,-4.87971 3.75939,-1.84477 8.55982,-1.84477 5.66799,0 9.7744,2.55887 4.16424,2.55888 6.18851,6.66497 l -6.13068,4.34414 q -1.04106,-2.38035 -2.71832,-3.74905 -1.67726,-1.4282 -3.58587,-1.96379 -1.90861,-0.59508 -3.75938,-0.59508 -3.00751,0 -5.26313,1.24968 -2.1978,1.24968 -3.70155,3.27298 -1.50376,2.02329 -2.25563,4.52266 -0.69404,2.49936 -0.69404,4.99873 0,2.7969 0.86755,5.41529 0.86755,2.55887 2.42914,4.58216 1.61943,1.96379 3.81722,3.15396 2.25562,1.13067 4.91611,1.13067 1.90861,0 3.87506,-0.6546 1.96644,-0.65459 3.6437,-2.0828 1.67727,-1.42821 2.60265,-3.68954 l 6.53554,3.86807 q -1.21457,3.15395 -3.99072,5.35577 -2.71833,2.20183 -6.13069,3.3325 -3.41236,1.13065 -6.76689,1.13065 -4.39558,0 -8.03929,-1.84476 -3.64371,-1.90428 -6.30419,-4.99873 -2.60265,-3.15396 -4.1064,-7.02203 -1.44592,-3.92757 -1.44592,-7.91465 z m 39.32896,12.19928 q 0,-3.03495 1.61943,-5.29627 1.67726,-2.32084 4.62693,-3.57052 2.94967,-1.24968 6.76688,-1.24968 1.90861,0 3.87506,0.29754 1.96645,0.29754 3.41236,0.95214 v -1.66625 q 0,-2.97543 -1.7351,-4.58217 -1.67726,-1.60673 -5.03179,-1.60673 -2.48697,0 -4.7426,0.89263 -2.25563,0.89263 -4.74261,2.61839 l -2.48697,-5.23677 q 3.0075,-2.0233 6.13068,-3.03494 3.18102,-1.01165 6.65121,-1.01165 6.47771,0 10.06358,3.33249 3.64371,3.33248 3.64371,9.52138 v 9.93795 q 0,1.24969 0.40486,1.78526 0.46269,0.53558 1.44591,0.6546 v 6.48644 q -1.04105,0.17853 -1.90861,0.29755 -0.80971,0.11901 -1.38808,0.11901 -2.31346,0 -3.52803,-1.07115 -1.15674,-1.07116 -1.44592,-2.61839 l -0.17351,-1.60673 q -1.96644,2.61839 -4.91611,4.04659 -2.94967,1.42821 -6.01501,1.42821 -3.00751,0 -5.43665,-1.24968 -2.37129,-1.30919 -3.75937,-3.51102 -1.33025,-2.26132 -1.33025,-5.05823 z m 18.85475,1.60674 q 0.6362,-0.71411 1.04106,-1.42821 0.40485,-0.71411 0.40485,-1.30919 v -3.15397 q -1.38808,-0.59508 -3.0075,-0.89263 -1.61943,-0.35705 -3.06535,-0.35705 -3.0075,0 -4.97395,1.36871 -1.90861,1.30918 -1.90861,3.511 0,1.19018 0.63621,2.26134 0.6362,1.07115 1.85077,1.72575 1.21457,0.65459 2.89183,0.65459 1.7351,0 3.41236,-0.65459 1.67727,-0.71411 2.71833,-1.72575 z m 63.50458,7.6171 h -7.75011 v -17.49555 q 0,-3.68953 -1.2724,-5.41529 -1.21457,-1.78526 -3.41237,-1.78526 -2.25563,0 -4.33775,1.84477 -2.02427,1.78526 -2.89182,4.70119 V 265.383 h -7.75011 v -17.49555 q 0,-3.74905 -1.27241,-5.47479 -1.21457,-1.72576 -3.41236,-1.72576 -2.25563,0 -4.33775,1.78526 -2.02428,1.78527 -2.89183,4.70119 V 265.383 h -7.75011 v -31.18255 h 6.99823 v 5.77235 q 1.7351,-3.03494 4.62694,-4.64168 2.89182,-1.66624 6.65121,-1.66624 3.75937,0 5.8415,1.90428 2.13995,1.90427 2.71832,4.70119 1.85077,-3.21348 4.68476,-4.87972 2.89184,-1.72575 6.47771,-1.72575 2.83399,0 4.56909,1.07115 1.79294,1.01166 2.77616,2.79691 0.98323,1.72575 1.33025,3.92758 0.40485,2.20182 0.40485,4.46314 z m 24.92757,0.59509 q -3.52804,0 -6.24636,-1.60673 -2.66048,-1.66625 -4.16424,-4.46315 v 18.15014 h -7.7501 v -43.8579 h 6.76688 v 5.35579 q 1.7351,-2.7374 4.39559,-4.28463 2.66048,-1.60673 6.07284,-1.60673 3.06535,0 5.61015,1.24968 2.60265,1.24968 4.51127,3.51101 1.90861,2.20183 2.94966,5.11774 1.09889,2.85643 1.09889,6.18891 0,4.52266 -1.7351,8.2122 -1.67725,3.68954 -4.68476,5.89136 -2.94967,2.14231 -6.82472,2.14231 z m -2.60265,-6.78398 q 1.79294,0 3.23885,-0.77362 1.44592,-0.77362 2.48697,-2.0828 1.0989,-1.36871 1.61943,-3.03495 0.57837,-1.72575 0.57837,-3.57052 0,-1.96378 -0.63621,-3.63003 -0.57836,-1.66624 -1.7351,-2.91593 -1.15672,-1.30918 -2.71831,-2.02328 -1.50376,-0.71411 -3.29669,-0.71411 -1.0989,0 -2.25564,0.41656 -1.09889,0.35705 -2.13994,1.07115 -1.04106,0.71411 -1.85078,1.66625 -0.75187,0.95214 -1.0989,2.08281 v 7.31956 q 0.69405,1.72575 1.85078,3.15396 1.21457,1.42821 2.77615,2.26133 1.56159,0.77362 3.18102,0.77362 z m 20.82124,-5.47481 v -19.51885 h 7.7501 v 17.79311 q 0,3.57051 1.27241,5.41529 1.2724,1.78526 3.75938,1.78526 1.50375,0 2.94967,-0.59509 1.50375,-0.6546 2.71832,-1.90428 1.2724,-1.24969 2.13995,-3.15396 v -19.34033 h 7.75011 v 22.25625 q 0,1.24969 0.40486,1.78526 0.46269,0.53558 1.44591,0.6546 v 6.48644 q -1.15673,0.17853 -1.96644,0.23804 -0.75187,0.11901 -1.38808,0.11901 -2.08212,0 -3.41236,-0.95213 -1.27241,-1.01165 -1.50375,-2.7374 l -0.17351,-2.49936 q -2.02429,3.15395 -5.2053,4.8202 -3.18102,1.60673 -6.99823,1.60673 -4.68477,0 -7.11391,-3.09445 -2.42913,-3.15396 -2.42913,-9.16434 z m 47.8887,-30.46844 h 7.40308 l 4.68478,13.98454 4.7426,-13.98454 h 7.34525 l -7.05607,19.2213 5.2053,13.44897 11.62516,-32.78928 h 8.67549 l -16.4256,42.25115 h -6.88256 l -7.22957,-17.73358 -7.17174,17.73358 h -6.88257 l -16.36777,-42.25115 h 8.55983 l 11.683,32.78928 5.08962,-13.44897 z m 46.09578,42.13214 v -31.18255 h 7.75011 V 265.383 Z m 0,-35.52668 v -7.91465 h 7.75011 v 7.91465 z m 25.91076,36.12177 q -3.87505,0 -7.40309,-1.30919 -3.52803,-1.30919 -6.07284,-3.86806 l 2.77615,-5.17726 q 2.71833,2.26133 5.32098,3.33249 2.66048,1.07115 5.08962,1.07115 2.25563,0 3.58587,-0.83311 1.38808,-0.83313 1.38808,-2.49937 0,-1.13067 -0.75187,-1.72576 -0.75188,-0.65459 -2.1978,-1.13066 -1.38808,-0.47607 -3.41236,-1.07116 -3.35452,-1.13066 -5.61015,-2.20181 -2.25563,-1.07117 -3.41237,-2.6779 -1.09889,-1.66624 -1.09889,-4.22511 0,-3.09445 1.50375,-5.29628 1.56159,-2.26132 4.27992,-3.511 2.77616,-1.24969 6.4777,-1.24969 3.23885,0 6.13068,1.07116 2.89183,1.01164 5.26314,3.33248 l -3.12319,5.05824 q -2.31346,-1.84477 -4.39558,-2.67789 -2.08212,-0.89263 -4.22207,-0.89263 -1.21457,0 -2.31347,0.29754 -1.04105,0.29755 -1.73509,1.01165 -0.63621,0.6546 -0.63621,1.90428 0,1.13066 0.57837,1.78526 0.6362,0.59509 1.85076,1.07115 1.27241,0.47608 3.06535,1.07116 3.64371,1.07115 6.13068,2.20182 2.54481,1.13067 3.81722,2.79691 1.27241,1.60674 1.27241,4.46315 0,4.64168 -3.29669,7.26006 -3.29668,2.61838 -8.84901,2.61838 z m 31.46308,0 q -3.64371,0 -6.59338,-1.24968 -2.94967,-1.30919 -5.03179,-3.51102 -2.08212,-2.26132 -3.23885,-5.11774 -1.0989,-2.91592 -1.0989,-6.12939 0,-4.46315 1.90861,-8.15269 1.96645,-3.68954 5.55233,-5.89136 3.6437,-2.26133 8.55982,-2.26133 4.97394,0 8.50198,2.26133 3.52803,2.20182 5.3788,5.89136 1.90862,3.63003 1.90862,7.85514 0,0.71411 -0.0579,1.48772 -0.0579,0.7141 -0.11567,1.19018 h -23.42381 q 0.23134,2.38034 1.33024,4.16561 1.15673,1.78526 2.89183,2.73739 1.79294,0.89263 3.81722,0.89263 2.31346,0 4.33775,-1.13066 2.08212,-1.19018 2.83399,-3.09445 l 6.65121,1.90427 q -1.09889,2.38035 -3.18101,4.22512 -2.02428,1.84477 -4.80044,2.91593 -2.77616,1.01164 -6.13068,1.01164 z m -7.92362,-18.68572 h 15.84724 q -0.23135,-2.38035 -1.33025,-4.10611 -1.04106,-1.78526 -2.77616,-2.73739 -1.7351,-1.01165 -3.87505,-1.01165 -2.08212,0 -3.81722,1.01165 -1.67726,0.95213 -2.77616,2.73739 -1.04105,1.72576 -1.2724,4.10611 z"
       id="text4"
       style="font-weight:bold;font-size:58.6667px;font-family:Raleway;-inkscape-font-specification:'Raleway, Bold';opacity:1;fill:url(#linearGradient19);fill-opacity:1;fill-rule:evenodd;stroke:#f2f4f6;stroke-width:0"
       aria-label="CampuWise" /></g></svg>
