<?xml version="1.0" encoding="UTF-8" standalone="no"?>
<!-- Created with Inkscape (http://www.inkscape.org/) -->

<svg
   width="412.80927"
   height="61.26857"
   viewBox="0 0 412.80929 61.268572"
   version="1.1"
   id="svg1"
   xml:space="preserve"
   inkscape:version="1.4.2 (ebf0e940, 2025-05-08)"
   sodipodi:docname="campuwise-logo-transparent.svg"
   xmlns:inkscape="http://www.inkscape.org/namespaces/inkscape"
   xmlns:sodipodi="http://sodipodi.sourceforge.net/DTD/sodipodi-0.dtd"
   xmlns="http://www.w3.org/2000/svg"
   xmlns:svg="http://www.w3.org/2000/svg"><sodipodi:namedview
     id="namedview1"
     pagecolor="#808080"
     bordercolor="#000000"
     borderopacity="0.24705882"
     inkscape:showpageshadow="2"
     inkscape:pageopacity="0.0"
     inkscape:pagecheckerboard="true"
     inkscape:deskcolor="#d1d1d1"
     inkscape:document-units="mm"
     inkscape:zoom="1.4396184"
     inkscape:cx="158.37531"
     inkscape:cy="-14.587199"
     inkscape:window-width="1920"
     inkscape:window-height="957"
     inkscape:window-x="0"
     inkscape:window-y="25"
     inkscape:window-maximized="1"
     inkscape:current-layer="g18"
     showguides="true"
     inkscape:export-bgcolor="#ffffff00"><inkscape:page
       x="0"
       y="0"
       width="412.8093"
       height="61.268574"
       id="page1"
       margin="0"
       bleed="0" /></sodipodi:namedview><defs
     id="defs1" /><g
     inkscape:label="Layer 1"
     inkscape:groupmode="layer"
     id="layer1"
     transform="translate(-43.595375,-219.36572)"><g
       id="g18"
       transform="translate(16.95265)"><g
         style="fill:none"
         id="g17"
         transform="matrix(3.2825084,0,0,3.4038098,23.360216,209.15429)"><g
           id="SVGRepo_bgCarrier"
           stroke-width="0" /><g
           id="SVGRepo_tracerCarrier"
           stroke-linecap="round"
           stroke-linejoin="round" /><g
           id="SVGRepo_iconCarrier"><path
             d="m 14.217,3.49965 c -1.421,-0.6662 -3.0135,-0.6662 -4.43448,0 L 5.48919,5.51246 C 6.27114,5.59683 6.98602,6.0894 7.31789,6.86377 7.80739,8.00594 7.2783,9.32867 6.13613,9.81817 L 5.06046,10.2792 c -0.53452,0.229 -0.83785,0.3614 -1.04264,0.4664 -0.00112,0.0163 -0.00218,0.0332 -0.00317,0.0506 l 5.76796,2.7041 c 1.42099,0.6662 3.01349,0.6662 4.43449,0 l 6.6911,-3.1369 c 1.4555,-0.68235 1.4555,-3.04441 0,-3.72676 z"
             fill="#f2f4f6"
             id="path1" /><path
             d="m 4.9998,12.9147 v 3.7107 c 0,1.008 0.50351,1.9518 1.38534,2.4402 C 7.85351,19.8787 10.2038,21 11.9998,21 c 1.796,0 4.1463,-1.1213 5.6147,-1.9344 0.8818,-0.4884 1.3853,-1.4322 1.3853,-2.4402 v -3.7106 l -4.146,1.9437 c -1.8244,0.8553 -3.8835,0.8553 -5.70792,0 z"
             fill="#f2f4f6"
             id="path2" /><path
             d="M 5.54544,8.43955 C 5.92616,8.27638 6.10253,7.83547 5.93936,7.45475 5.7762,7.07403 5.33529,6.89767 4.95456,7.06083 L 3.84318,7.53714 C 3.28571,7.77603 2.81328,7.97849 2.44254,8.18705 2.04805,8.40898 1.70851,8.66944 1.45419,9.05513 1.19986,9.44083 1.09421,9.85551 1.04563,10.3055 0.999964,10.7284 0.999981,11.2424 1,11.8489 v 2.9013 c 0,0.4142 0.33579,0.75 0.75,0.75 0.41422,0 0.75,-0.3358 0.75,-0.75 V 11.8878 C 2.5,11.232 2.50101,10.7995 2.53696,10.4665 2.57095,10.1517 2.63046,9.99612 2.70645,9.88087 2.78244,9.76562 2.90202,9.64964 3.178,9.49438 3.46985,9.33019 3.867,9.15889 4.46976,8.90056 Z"
             fill="#f2f4f6"
             id="path3" /></g></g><path
         d="m 108.95351,240.50813 q 0,-3.81333 1.34933,-7.45067 1.408,-3.696 4.04801,-6.688 2.64,-3.05067 6.45333,-4.81067 3.81334,-1.81867 8.68267,-1.81867 5.74934,0 9.91468,2.52267 4.224,2.52267 6.27733,6.57067 l -6.21867,4.28267 q -1.056,-2.34667 -2.75733,-3.696 -1.70134,-1.408 -3.63734,-1.93601 -1.936,-0.58666 -3.81333,-0.58666 -3.05067,0 -5.33867,1.232 -2.22934,1.232 -3.75467,3.22667 -1.52534,1.99466 -2.288,4.45867 -0.704,2.464 -0.704,4.928 0,2.75733 0.88,5.33867 0.88,2.52267 2.464,4.51733 1.64267,1.93601 3.872,3.10934 2.288,1.11467 4.98667,1.11467 1.936,0 3.93067,-0.64534 1.99467,-0.64533 3.696,-2.05333 1.70134,-1.408 2.64,-3.63734 l 6.62934,3.81334 q -1.232,3.10933 -4.048,5.28 -2.75734,2.17067 -6.21867,3.28534 -3.46134,1.11466 -6.86401,1.11466 -4.45867,0 -8.15467,-1.81866 -3.696,-1.87734 -6.39467,-4.92801 -2.64,-3.10933 -4.16533,-6.92267 -1.46667,-3.872 -1.46667,-7.80267 z m 39.8934,12.02668 q 0,-2.99201 1.64267,-5.22134 1.70133,-2.288 4.69334,-3.52 2.992,-1.232 6.864,-1.232 1.936,0 3.93067,0.29333 1.99467,0.29333 3.46133,0.93867 v -1.64267 q 0,-2.93334 -1.76,-4.51734 -1.70133,-1.584 -5.104,-1.584 -2.52267,0 -4.81067,0.88 -2.288,0.88 -4.81067,2.58134 l -2.52267,-5.16267 q 3.05067,-1.99467 6.21867,-2.992 3.22667,-0.99734 6.74667,-0.99734 6.57067,0 10.20801,3.28534 3.696,3.28533 3.696,9.38667 v 9.79734 q 0,1.232 0.41067,1.76 0.46933,0.528 1.46667,0.64533 v 6.39467 q -1.056,0.176 -1.93601,0.29334 -0.82133,0.11733 -1.408,0.11733 -2.34666,0 -3.57866,-1.056 -1.17334,-1.056 -1.46667,-2.58134 l -0.176,-1.584 q -1.99467,2.58134 -4.98667,3.98934 -2.992,1.408 -6.10134,1.408 -3.05067,0 -5.51467,-1.232 -2.40533,-1.29067 -3.81333,-3.46134 -1.34934,-2.22933 -1.34934,-4.98666 z m 19.12535,1.584 q 0.64533,-0.704 1.056,-1.408 0.41066,-0.70401 0.41066,-1.29067 v -3.10934 q -1.408,-0.58666 -3.05066,-0.88 -1.64267,-0.352 -3.10934,-0.352 -3.05067,0 -5.04534,1.34934 -1.936,1.29066 -1.936,3.46133 0,1.17334 0.64534,2.22934 0.64533,1.056 1.87733,1.70133 1.232,0.64533 2.93334,0.64533 1.76,0 3.46133,-0.64533 1.70134,-0.704 2.75734,-1.70133 z m 64.41599,7.50933 h -7.86133 v -17.24801 q 0,-3.63733 -1.29067,-5.33867 -1.232,-1.76 -3.46134,-1.76 -2.288,0 -4.4,1.81867 -2.05333,1.76 -2.93333,4.63467 v 17.89334 h -7.86134 v -17.24801 q 0,-3.696 -1.29067,-5.39733 -1.232,-1.70134 -3.46133,-1.70134 -2.288,0 -4.40001,1.76 -2.05333,1.76001 -2.93333,4.63467 v 17.95201 h -7.86134 v -30.74135 h 7.09867 v 5.69067 q 1.76,-2.992 4.69334,-4.576 2.93333,-1.64267 6.74667,-1.64267 3.81333,0 5.92534,1.87734 2.17066,1.87733 2.75733,4.63467 1.87733,-3.16801 4.752,-4.81067 2.93334,-1.70134 6.57067,-1.70134 2.87467,0 4.63467,1.056 1.81867,0.99734 2.816,2.75734 0.99734,1.70133 1.34934,3.872 0.41066,2.17067 0.41066,4.4 z m 25.28533,0.58667 q -3.57867,0 -6.336,-1.584 -2.69867,-1.64267 -4.22401,-4.4 v 17.89334 h -7.86133 v -43.23736 h 6.864 v 5.28001 q 1.76,-2.69867 4.45867,-4.22401 2.69867,-1.584 6.16,-1.584 3.10934,0 5.69067,1.232 2.64,1.232 4.57601,3.46134 1.936,2.17067 2.992,5.04533 1.11466,2.81601 1.11466,6.10134 0,4.45867 -1.76,8.09601 -1.70133,3.63733 -4.752,5.808 -2.992,2.112 -6.92267,2.112 z m -2.64,-6.688 q 1.81867,0 3.28533,-0.76267 1.46667,-0.76267 2.52267,-2.05333 1.11467,-1.34934 1.64267,-2.99201 0.58667,-1.70133 0.58667,-3.52 0,-1.936 -0.64534,-3.57867 -0.58666,-1.64266 -1.76,-2.87467 -1.17333,-1.29066 -2.75733,-1.99466 -1.52534,-0.704 -3.344,-0.704 -1.11467,0 -2.28801,0.41066 -1.11466,0.352 -2.17066,1.056 -1.056,0.704 -1.87734,1.64267 -0.76266,0.93867 -1.11467,2.05334 v 7.216 q 0.70401,1.70133 1.87734,3.10934 1.232,1.408 2.816,2.22933 1.584,0.76267 3.22667,0.76267 z m 21.12006,-5.39734 v -19.24268 h 7.86133 v 17.54135 q 0,3.52 1.29067,5.33867 1.29067,1.76 3.81334,1.76 1.52533,0 2.992,-0.58667 1.52533,-0.64533 2.75733,-1.87733 1.29067,-1.23201 2.17067,-3.10934 v -19.06668 h 7.86134 v 21.94135 q 0,1.232 0.41067,1.76 0.46933,0.528 1.46666,0.64533 v 6.39467 q -1.17333,0.176 -1.99466,0.23467 -0.76267,0.11733 -1.40801,0.11733 -2.112,0 -3.46133,-0.93866 -1.29067,-0.99734 -1.52533,-2.69867 l -0.176,-2.464 q -2.05334,3.10933 -5.28001,4.752 -3.22667,1.584 -7.09867,1.584 -4.752,0 -7.216,-3.05067 -2.464,-3.10933 -2.464,-9.03467 z m 48.576,-30.03735 h 7.50933 l 4.75201,13.78667 4.81067,-13.78667 h 7.45067 l -7.15734,18.94934 5.28,13.25868 11.79201,-32.32535 h 8.8 l -16.66134,41.65335 h -6.98134 l -7.33333,-17.48267 -7.27467,17.48267 h -6.98134 l -16.60268,-41.65335 h 8.68268 l 11.85067,32.32535 5.16267,-13.25868 z m 46.75734,41.53602 v -30.74135 h 7.86134 v 30.74135 z m 0,-35.02402 v -7.80267 h 7.86134 v 7.80267 z m 26.28263,35.61069 q -3.93067,0 -7.50934,-1.29067 -3.57866,-1.29066 -6.16,-3.81333 l 2.816,-5.10401 q 2.75734,2.22934 5.39734,3.28534 2.69867,1.056 5.16267,1.056 2.288,0 3.63733,-0.82133 1.408,-0.82134 1.408,-2.464 0,-1.11467 -0.76266,-1.70134 -0.76267,-0.64533 -2.22934,-1.11467 -1.408,-0.46933 -3.46133,-1.056 -3.40267,-1.11466 -5.69067,-2.17066 -2.288,-1.05601 -3.46134,-2.64001 -1.11466,-1.64266 -1.11466,-4.16533 0,-3.05067 1.52533,-5.22134 1.584,-2.22933 4.34134,-3.46133 2.816,-1.232 6.57067,-1.232 3.28533,0 6.21867,1.056 2.93333,0.99733 5.33867,3.28533 l -3.16801,4.98667 q -2.34666,-1.81867 -4.45867,-2.64 -2.112,-0.88 -4.28266,-0.88 -1.232,0 -2.34667,0.29333 -1.056,0.29334 -1.76,0.99734 -0.64534,0.64533 -0.64534,1.87733 0,1.11467 0.58667,1.76 0.64533,0.58667 1.87733,1.056 1.29067,0.46934 3.10934,1.056 3.696,1.056 6.21867,2.17067 2.58133,1.11467 3.872,2.75734 1.29067,1.584 1.29067,4.4 0,4.576 -3.344,7.15734 -3.344,2.58133 -8.97601,2.58133 z m 31.91463,0 q -3.696,0 -6.688,-1.232 -2.99201,-1.29067 -5.10401,-3.46134 -2.112,-2.22933 -3.28533,-5.04533 -1.11467,-2.87467 -1.11467,-6.04267 0,-4.4 1.936,-8.03734 1.99467,-3.63733 5.63201,-5.808 3.696,-2.22934 8.68267,-2.22934 5.04533,0 8.624,2.22934 3.57867,2.17067 5.456,5.808 1.93601,3.57867 1.93601,7.744 0,0.70401 -0.0587,1.46667 -0.0587,0.704 -0.11733,1.17334 H 421.8229 q 0.23467,2.34666 1.34934,4.10667 1.17333,1.76 2.93333,2.69866 1.81867,0.88 3.872,0.88 2.34667,0 4.40001,-1.11466 2.112,-1.17334 2.87466,-3.05067 l 6.74667,1.87733 q -1.11466,2.34667 -3.22666,4.16534 -2.05334,1.81867 -4.86934,2.87467 -2.816,0.99733 -6.21867,0.99733 z m -8.03734,-18.42134 h 16.07468 q -0.23467,-2.34667 -1.34934,-4.04801 -1.056,-1.76 -2.816,-2.69866 -1.76,-0.99734 -3.93067,-0.99734 -2.112,0 -3.872,0.99734 -1.70133,0.93866 -2.816,2.69866 -1.056,1.70134 -1.29067,4.04801 z"
         id="text4"
         style="font-weight:bold;font-size:58.6667px;font-family:Raleway;-inkscape-font-specification:'Raleway, Bold';fill:#ffffff;fill-rule:evenodd;stroke:#f2f4f6;stroke-width:0"
         transform="scale(0.98585116,1.0143519)"
         aria-label="CampuWise" /></g></g></svg>
